<svg width="40" height="35" viewBox="0 0 40 35" fill="none" xmlns="http://www.w3.org/2000/svg">
<path d="M38.1818 19.3346C37.6364 19.3346 37.2728 19.7015 37.2728 20.2518V32.1765C37.2728 32.7269 36.9091 33.0938 36.3637 33.0938H3.63637C3.0909 33.0938 2.7273 32.7268 2.7273 32.1765V20.2518C2.7273 19.7015 2.36363 19.3346 1.81824 19.3346C1.27285 19.3346 0.90918 19.7015 0.90918 20.2518V32.1765C0.90918 33.7359 2.09098 34.9284 3.63645 34.9284H36.3637C37.9092 34.9284 39.091 33.7359 39.091 32.1765V20.2518C39.091 19.7015 38.7273 19.3346 38.1818 19.3346Z" fill="#35B266"/>
<path fill-rule="evenodd" clip-rule="evenodd" d="M37.2727 6.49268H2.72727C1.1818 6.49268 0 7.68512 0 9.24451V15.1151C0 16.3993 0.909063 17.5 2.09094 17.7752L16.3637 20.9857V23.9209C16.3637 24.4713 16.7273 24.8382 17.2727 24.8382H22.7273C23.2727 24.8382 23.6363 24.4712 23.6363 23.9209V20.9857L37.9091 17.7752C39.0909 17.5 40 16.3993 40 15.1151V9.24443C40 7.68512 38.8182 6.49268 37.2727 6.49268ZM21.8182 23.0037H18.1819V19.3346H21.8182V23.0037ZM37.4545 16.0323C37.9091 15.9406 38.1818 15.5737 38.1818 15.1151V9.24451C38.1818 8.69421 37.8182 8.32726 37.2727 8.32726H2.72727C2.18187 8.32726 1.8182 8.69413 1.8182 9.24451V15.1151C1.8182 15.5738 2.09094 15.9406 2.54547 16.0324L16.3637 19.1511V18.4173C16.3637 17.867 16.7273 17.5 17.2727 17.5H22.7273C23.2727 17.5 23.6363 17.8669 23.6363 18.4173V19.1511L37.4545 16.0323Z" fill="#35B266"/>
<path d="M24.5455 0.0716553H15.4546C13.9091 0.0716553 12.7273 1.2641 12.7273 2.82349V3.74074C12.7273 4.29113 13.091 4.658 13.6364 4.658C14.1817 4.658 14.5454 4.29105 14.5454 3.74074V2.82349C14.5454 2.27311 14.9091 1.90624 15.4545 1.90624H24.5454C25.0909 1.90624 25.4545 2.27319 25.4545 2.82349V3.74074C25.4545 4.29113 25.8182 4.658 26.3635 4.658C26.909 4.658 27.2726 4.29105 27.2726 3.74074V2.82349C27.2728 1.2641 26.091 0.0716553 24.5455 0.0716553Z" fill="#35B266"/>
</svg>
