<svg width="16" height="18" viewBox="0 0 16 18" fill="none" xmlns="http://www.w3.org/2000/svg">
<path d="M8 9C10.525 9 12.5714 6.98555 12.5714 4.5C12.5714 2.01445 10.525 0 8 0C5.475 0 3.42857 2.01445 3.42857 4.5C3.42857 6.98555 5.475 9 8 9ZM3.71429 14.9062C3.71429 15.3738 4.09643 15.75 4.57143 15.75C5.04643 15.75 5.42857 15.3738 5.42857 14.9062C5.42857 14.4387 5.04643 14.0625 4.57143 14.0625C4.09643 14.0625 3.71429 14.4387 3.71429 14.9062ZM11.4286 10.1461V11.8688C12.7321 12.1289 13.7143 13.268 13.7143 14.625V16.091C13.7143 16.3582 13.5214 16.5902 13.2536 16.643L12.1036 16.868C11.95 16.8996 11.8 16.8012 11.7679 16.6465L11.6571 16.0945C11.625 15.9434 11.725 15.7922 11.8821 15.7641L12.5714 15.627V14.625C12.5714 12.4172 9.14286 12.3363 9.14286 14.6918V15.6305L9.83214 15.7676C9.98571 15.7992 10.0857 15.9469 10.0571 16.098L9.94643 16.65C9.91429 16.8012 9.76429 16.8996 9.61071 16.8715L8.49643 16.7238C8.21429 16.6852 8.00357 16.4496 8.00357 16.1648V14.625C8.00357 13.268 8.98571 12.1324 10.2893 11.8688V10.2797C10.2107 10.3043 10.1321 10.3184 10.0536 10.3465C9.41072 10.568 8.72143 10.691 8.00357 10.691C7.28571 10.691 6.59643 10.568 5.95357 10.3465C5.68929 10.2551 5.42143 10.1988 5.14643 10.1637V13.0324C5.97143 13.275 6.575 14.0203 6.575 14.9098C6.575 15.9961 5.67857 16.8785 4.575 16.8785C3.47143 16.8785 2.575 15.9961 2.575 14.9098C2.575 14.0203 3.17857 13.275 4.00357 13.0324V10.2059C1.73214 10.582 0 12.5086 0 14.85V16.425C0 17.2934 0.717857 18 1.6 18H14.4C15.2821 18 16 17.2934 16 16.425V14.85C16 12.3187 13.9714 10.2691 11.4286 10.1461Z" fill="#9A9A9A"/>
</svg>
