<svg width="16" height="18" viewBox="0 0 16 18" fill="none" xmlns="http://www.w3.org/2000/svg">
<path d="M7.87121 0.534424C7.9015 0.699658 8.48077 3.85668 8.48077 5.06254C8.48077 6.9012 7.42825 8.21253 5.87218 8.73987L6.36058 17.1105C6.38708 17.5922 5.9744 18 5.45192 18H3.02885C2.51016 18 2.09369 17.5957 2.12019 17.1105L2.60859 8.73987C1.04874 8.21253 0 6.89769 0 5.06254C0 3.85317 0.579267 0.699658 0.609555 0.534424C0.730709 -0.179246 2.32464 -0.189793 2.42308 0.573096V5.53714C2.4723 5.65668 2.99477 5.64964 3.02885 5.53714C3.08185 4.64769 3.32794 0.643408 3.33173 0.552002C3.45667 -0.179246 5.0241 -0.179246 5.14525 0.552002C5.15282 0.646923 5.39513 4.64769 5.44814 5.53714C5.48221 5.64964 6.00847 5.65668 6.05391 5.53714V0.573096C6.15234 -0.186277 7.75006 -0.179246 7.87121 0.534424ZM12.3842 10.5785L11.8163 17.0859C11.7709 17.5781 12.1911 18 12.7212 18H14.8413C15.3449 18 15.75 17.6238 15.75 17.1563V0.843798C15.75 0.379737 15.3449 5.0253e-05 14.8413 5.0253e-05C11.7178 5.0253e-05 6.45901 6.27542 12.3842 10.5785Z" fill="#9A9A9A"/>
</svg>
