<svg width="39" height="40" viewBox="0 0 39 40" fill="none" xmlns="http://www.w3.org/2000/svg">
<path fill-rule="evenodd" clip-rule="evenodd" d="M23.3069 13.8148C22.892 13.8148 22.5551 14.1517 22.5551 14.5671C22.5551 14.9825 22.892 15.3195 23.3069 15.3195C23.7218 15.3195 24.0587 14.9825 24.0587 14.5671C24.0587 14.1517 23.7218 13.8148 23.3069 13.8148Z" fill="#E8E8E8"/>
<path fill-rule="evenodd" clip-rule="evenodd" d="M25.3672 15.5995C25.0466 15.8636 25.0007 16.3377 25.2649 16.6584C26.3754 18.0074 27.0382 20.0683 27.0382 22.1708C27.0382 22.586 27.3749 22.9229 27.7903 22.9229C28.2052 22.9229 28.5419 22.586 28.5419 22.1708C28.5419 19.7303 27.7508 17.3119 26.4255 15.7018C26.1615 15.381 25.6877 15.3351 25.3672 15.5995Z" fill="#E8E8E8"/>
<path fill-rule="evenodd" clip-rule="evenodd" d="M27.1313 32.6475C25.9705 34.7694 23.5375 38.3266 20.2738 38.34C19.9505 38.2986 18.6233 37.8262 18.2298 37.5653C17.5025 37.0836 16.6334 36.8635 15.774 36.9413C14.9148 36.864 14.0465 37.0836 13.3186 37.5653C12.9247 37.8262 11.5982 38.2986 11.2754 38.34C8.01115 38.3266 5.57862 34.7694 4.41785 32.6475C2.64738 29.411 1.50346 25.2989 1.50346 22.1707C1.50346 17.8284 3.69738 13.835 6.71977 12.6749C6.72 12.6749 6.72 12.6749 6.72 12.6749C7.32762 12.4414 7.96385 12.322 8.61092 12.3192H8.62246C10.4575 12.3192 11.7939 14.1243 12.9577 14.7087C14.7295 15.5973 16.8028 15.6077 18.5908 14.7085C19.7532 14.1255 21.0983 12.3192 22.9405 12.3192C24.8594 12.3192 26.6525 13.3699 27.9895 15.2773C29.2962 17.141 30.0455 19.6538 30.0455 22.1707C30.0455 25.2987 28.9015 29.411 27.1313 32.6475ZM4.51754 5.8576L7.73862 9.08069C8.03238 9.37441 8.50823 9.37441 8.80177 9.08069C9.09554 8.78673 9.09554 8.31036 8.80177 8.01664L5.58115 4.79378C9.99438 4.96188 13.533 8.60616 13.533 13.0626V13.3087C12.1329 12.4717 10.4414 9.96601 6.66254 11.107C5.343 9.65913 4.59115 7.82059 4.51754 5.8576ZM18.2645 3.05176C18.5582 2.75781 19.0334 2.75758 19.3274 3.05176C19.6207 3.34526 19.6218 3.82048 19.3272 4.11535C17.5302 5.9144 16.5404 8.30574 16.5404 10.8486V13.811C16.0426 13.8929 15.5354 13.8945 15.0367 13.8158C15.0367 12.9203 15.0367 11.745 15.0367 10.8486C15.0367 7.90326 16.1832 5.13437 18.2645 3.05176ZM22.9408 10.8146C20.6121 10.8146 19.0131 12.6929 18.0441 13.2909V10.8486C18.0441 8.70753 18.8776 6.69396 20.3908 5.17917C21.2721 4.29731 21.2723 2.86981 20.3908 1.98795C19.5095 1.10586 18.0828 1.10563 17.2013 1.98772C15.4498 3.74012 14.2816 5.92064 13.7928 8.29304C12.1182 5.30594 8.92246 3.28268 5.26292 3.28268H3.75923C3.75462 3.28268 3.75046 3.28314 3.74585 3.28314C3.32885 3.29053 3.00692 3.63413 3.00738 4.03523V5.5394C3.00738 7.82544 3.78369 9.98656 5.21169 11.7276C3.79546 12.5261 2.577 13.8174 1.65 15.5151C0.585923 17.4633 0 19.8269 0 22.1707C0 25.5326 1.21638 29.9285 3.099 33.3698C5.38292 37.5452 8.29338 39.8446 11.2941 39.8446C11.8461 39.8446 13.5891 39.1909 14.1487 38.82C14.9522 38.2882 15.6602 38.4677 15.8592 38.445C16.3957 38.3838 16.9428 38.5171 17.3998 38.8198C17.9596 39.1909 19.7031 39.8446 20.2553 39.8446C23.256 39.8446 26.1662 37.5452 28.4504 33.3698C30.333 29.9285 31.5494 25.5326 31.5494 22.1707C31.5494 19.3517 30.7006 16.5242 29.2209 14.4132C27.594 12.0925 25.3638 10.8146 22.9408 10.8146Z" fill="#E8E8E8"/>
<path fill-rule="evenodd" clip-rule="evenodd" d="M25.5439 2.99189C25.6583 2.95355 25.7493 2.86257 25.7876 2.74804L26.1381 1.69531L26.4886 2.74804C26.5269 2.86257 26.6179 2.95379 26.7323 2.99189L27.7844 3.34264L26.7323 3.69363C26.6179 3.73173 26.5269 3.82294 26.4886 3.93725L26.1381 4.98998L25.7876 3.93725C25.7493 3.82294 25.6583 3.73173 25.5439 3.69363L24.4918 3.34264L25.5439 2.99189ZM23.1238 3.7957L25.0449 4.43648L25.6853 6.35884C25.7504 6.55396 25.9327 6.68558 26.1381 6.68558C26.3435 6.68558 26.5258 6.55396 26.5909 6.35884L27.2313 4.43648L29.1524 3.7957C29.3472 3.73081 29.4787 3.54839 29.4787 3.34287C29.4787 3.13713 29.3472 2.95471 29.1524 2.88959L27.2313 2.24881L26.5909 0.326682C26.5258 0.13156 26.3435 -6.10352e-05 26.1381 -6.10352e-05C25.9327 -6.10352e-05 25.7504 0.13156 25.6853 0.326682L25.0449 2.24881L23.1238 2.88959C22.9288 2.95471 22.7975 3.13713 22.7975 3.34287C22.7975 3.54839 22.9288 3.73081 23.1238 3.7957Z" fill="#E8E8E8"/>
<path fill-rule="evenodd" clip-rule="evenodd" d="M34.5671 9.18371C34.3901 9.24259 34.2496 9.38345 34.1905 9.56056L33.603 11.3245L33.0154 9.56056C32.9566 9.38345 32.8158 9.24259 32.6393 9.18371L30.8762 8.59604L32.6393 8.00813C32.8158 7.94925 32.9566 7.80816 33.0154 7.63128L33.603 5.86756L34.1905 7.63128C34.2494 7.80839 34.3901 7.94925 34.5671 8.00813L36.3297 8.59604L34.5671 9.18371ZM38.3986 8.03122L35.2255 6.97271L34.1677 3.79742C34.0862 3.55381 33.8596 3.39032 33.603 3.39032C33.3466 3.39032 33.12 3.55381 33.0385 3.79742L31.9809 6.97271L28.8076 8.03122C28.5641 8.1125 28.4005 8.33926 28.4005 8.59604C28.4005 8.85258 28.5641 9.07934 28.8076 9.16062L31.9809 10.2191L33.0385 13.3944C33.12 13.638 33.3466 13.8018 33.603 13.8018C33.8596 13.8018 34.0862 13.638 34.1677 13.3944L35.2255 10.2191L38.3986 9.16062C38.6418 9.07934 38.8054 8.85235 38.8054 8.59604C38.8054 8.33949 38.6418 8.1125 38.3986 8.03122Z" fill="#E8E8E8"/>
</svg>
