<svg width="9" height="16" viewBox="0 0 9 16" fill="none" xmlns="http://www.w3.org/2000/svg">
<path d="M0.655052 0.653141C0.448316 0.860401 0.448316 1.19588 0.655052 1.40314L7.23799 7.99317L0.655052 14.5962C0.44898 14.8033 0.44898 15.1381 0.655052 15.3452C0.754082 15.4443 0.888443 15.5 1.02855 15.5C1.16865 15.5 1.30301 15.4443 1.40205 15.3452L8.34498 8.38017C8.44524 8.28169 8.50119 8.1467 8.49998 8.00617C8.49903 7.86578 8.44343 7.73127 8.34498 7.63117L1.40205 0.666142C1.3063 0.562525 1.17238 0.502533 1.03133 0.500078C0.890271 0.497623 0.75434 0.552918 0.655052 0.653141Z" fill="#606060"/>
</svg>
