<svg width="15" height="15" viewBox="0 0 15 15" fill="none" xmlns="http://www.w3.org/2000/svg">
<path d="M7.5 0C3.35766 0 0 3.35766 0 7.5C0 11.6423 3.35766 15 7.5 15C11.6423 15 15 11.6423 15 7.5C15 3.35766 11.6423 0 7.5 0ZM8.4375 11.7188C8.4375 12.2367 8.01797 12.6562 7.5 12.6562C6.98203 12.6562 6.5625 12.2367 6.5625 11.7188V6.09375C6.5625 5.57578 6.98203 5.15625 7.5 5.15625C8.01797 5.15625 8.4375 5.57578 8.4375 6.09375V11.7188ZM7.5 4.21875C6.98203 4.21875 6.5625 3.79922 6.5625 3.28125C6.5625 2.76328 6.98203 2.34375 7.5 2.34375C8.01797 2.34375 8.4375 2.76328 8.4375 3.28125C8.4375 3.79922 8.01797 4.21875 7.5 4.21875Z" fill="#606060"/>
</svg>
